# xmcd
#
# Track frame offsets:
#	150
#	20270
#	39567
#	57945
#	73687
#	94515
#	111605
#	129155
#	145292
#	165735
#	183645
#	206032
#	223330
#	240470
#
# Disc length: 3477 seconds
#
# Revision: 0
# Processed by: cddbd v1.4b42PL1 Copyright (c) Steve Scherf et al.
# Submitted via: EasyCDDAExtractor 4.5.0.1
#
DISCID=d10d930e
DTITLE=Vários - Alegria do Brasil
DYEAR=2001
DGENRE=country
TTITLE0=Só pra Contrariar - Essa Tal Liberdade (Ao Vivo)
TTITLE1=Terra Samba - Libertar Geral (Ao Vivo)
TTITLE2=Exaltasamba - Gamei
TTITLE3=Lulu Santos - Assim Caminha a Humanidade
TTITLE4=Katingulê - Mundo dos Sonhos (Ao Vivo)
TTITLE5=Kiloucura - Pela Vida Inteira
TTITLE6=Grupo Molejo - Assim Oh!
TTITLE7=Os Morenos - Marrom Bombom
TTITLE8=Sensação - Presiso Desse Mel
TTITLE9=Banda Mel - Festa na Bahia (Ao Vivo)
TTITLE10=Cidade Negra - Onde Voçê Mora
TTITLE11=Karametade - Decisão
TTITLE12=Ara Ketu - Ô meu Pai
TTITLE13=Pique Novo - Lugares
EXTD=
EXTT0=
EXTT1=
EXTT2=
EXTT3=
EXTT4=
EXTT5=
EXTT6=
EXTT7=
EXTT8=
EXTT9=
EXTT10=
EXTT11=
EXTT12=
EXTT13=
PLAYORDER=
